<?xml version="1.0" standalone="no"?><!-- Generator: Gravit.io -->
<svg xmlns="http://www.w3.org/2000/svg" xmlns:xlink="http://www.w3.org/1999/xlink" style="isolation:isolate" viewBox="0 0 351 351" width="351"
     height="351">
	<g>
		<g id="Group">
			<g id="Group">
				<path
					d=" M 54.352 165.052 L 54.352 165.052 L 54.352 164.935 C 54.939 158.009 56.113 151.317 57.991 144.743 L 58.109 144.391 C 58.109 144.039 58.226 143.687 58.343 143.335 L 58.461 142.983 C 58.461 142.63 58.578 142.278 58.696 142.043 L 58.813 141.574 C 58.93 141.222 59.048 140.87 59.165 140.517 L 59.165 140.4 L 59.283 140.048 C 59.4 139.813 59.4 139.578 59.517 139.343 L 59.635 138.874 L 59.752 138.522 L 59.87 138.17 L 59.987 137.817 L 59.987 137.7 L 60.104 137.348 L 60.222 137.23 C 60.339 136.996 60.339 136.643 60.457 136.291 L 60.574 136.174 L 60.691 135.822 L 60.926 135 L 61.043 134.648 L 61.161 134.53 C 61.278 134.178 61.396 133.943 61.513 133.591 L 61.513 133.474 L 61.63 133.122 C 61.748 132.77 61.865 132.535 61.983 132.183 L 62.1 131.83 C 62.335 131.478 62.452 131.126 62.57 130.891 L 62.57 130.774 L 62.687 130.422 L 63.039 129.6 L 63.274 129.013 L 63.626 128.309 L 63.861 127.722 C 63.978 127.37 64.096 127.135 64.213 126.783 L 64.448 126.43 C 64.565 126.196 64.683 125.843 64.8 125.491 L 65.035 125.139 L 65.387 124.317 L 65.622 123.73 C 65.739 123.496 65.857 123.261 65.974 123.026 L 66.326 122.439 C 66.443 122.204 66.561 121.97 66.678 121.617 L 66.913 121.148 C 67.03 120.913 67.148 120.678 67.265 120.326 L 67.383 120.326 L 67.5 119.974 L 67.617 119.857 L 67.97 119.152 L 68.204 118.683 C 68.322 118.448 68.557 118.096 68.674 117.861 L 68.909 117.274 L 69.378 116.687 L 69.73 115.983 C 69.848 115.865 69.965 115.63 70.083 115.396 L 70.317 114.809 C 70.552 114.574 70.67 114.339 70.787 114.104 L 72.313 111.522 L 72.313 111.639 C 77.243 103.891 82.878 96.848 89.335 90.391 C 111.404 68.322 141.691 54.822 175.265 54.822 C 208.722 54.822 239.126 68.322 261.196 90.391 C 283.265 112.461 296.765 142.748 296.765 176.322 C 296.765 209.896 283.265 240.183 261.196 262.252 C 239.126 284.322 208.839 297.939 175.265 297.939 C 141.809 297.939 111.404 284.322 89.335 262.252 C 82.878 255.796 77.243 248.752 72.313 241.004 L 72.313 241.122 L 70.787 238.539 C 70.67 238.304 70.552 238.07 70.317 237.835 L 70.317 237.717 L 70.083 237.365 C 69.965 237.013 69.73 236.778 69.613 236.426 L 69.496 236.309 L 69.261 235.957 L 68.909 235.37 L 68.674 234.9 C 68.557 234.548 68.322 234.313 68.204 234.078 L 68.204 233.961 L 67.97 233.609 C 67.852 233.257 67.617 232.904 67.5 232.552 L 67.383 232.552 C 61.748 221.635 57.639 209.778 55.526 197.335 L 55.526 196.983 C 55.409 196.63 55.409 196.278 55.291 195.926 L 55.291 195.809 L 55.291 195.457 L 55.174 194.635 L 55.057 194.283 L 55.057 194.165 C 55.057 193.813 54.939 193.461 54.939 193.109 L 54.939 192.991 L 54.822 192.639 C 54.822 192.287 54.822 191.935 54.704 191.583 L 54.704 191.465 L 54.704 190.996 C 54.587 190.643 54.587 190.291 54.587 189.939 L 54.47 189.822 L 54.47 189.117 L 54.47 188.883 C 54 184.774 53.883 180.9 53.883 176.674 C 54 172.096 54.117 168.457 54.352 165.052 Z  M 70.787 163.291 L 70.787 117.391 C 63.157 131.243 58.109 146.739 56.465 163.291 L 70.787 163.291 Z  M 280.096 117.391 L 280.096 163.291 L 294.535 163.291 C 293.713 154.722 291.952 146.387 289.252 138.404 C 286.904 131.126 283.735 124.083 280.096 117.391 Z  M 294.417 189.47 L 280.096 189.47 L 280.096 233.609 C 283.735 227.27 286.67 220.461 289.017 213.417 C 291.6 205.787 293.478 197.804 294.417 189.47 Z  M 279.157 187.709 L 294.535 187.709 C 294.887 183.6 295.122 179.726 295.122 175.5 C 295.122 171.978 294.887 168.457 294.652 164.935 L 279.157 164.935 L 278.335 164.935 L 278.335 164.113 L 278.335 114.222 C 273.17 105.652 267.065 97.787 260.139 90.861 C 238.422 69.143 208.487 55.643 175.383 55.643 C 142.396 55.643 112.343 69.026 90.626 90.861 C 83.7 97.787 77.596 105.652 72.43 114.222 L 72.43 164.113 L 72.43 164.935 L 71.609 164.935 L 56.23 164.935 C 55.996 168.457 55.761 171.978 55.761 175.5 C 55.761 179.726 55.996 183.6 56.348 187.709 L 71.726 187.709 L 72.548 187.709 L 72.548 188.53 L 72.548 236.778 C 77.713 245.23 83.817 253.213 90.743 260.257 C 112.343 281.857 142.396 295.357 175.5 295.357 C 208.487 295.357 238.422 281.974 260.257 260.257 C 267.183 253.213 273.287 245.465 278.452 236.896 L 278.452 188.53 L 278.452 187.709 L 279.157 187.709 L 279.157 187.709 Z  M 70.787 189.47 L 56.583 189.47 C 58.343 205.435 63.391 220.343 70.787 233.609 L 70.787 189.47 L 70.787 189.47 Z "
					fill="rgb(0,0,0)"/>
			</g>
			<g id="Group">
				<path
					d=" M 131.478 175.5 C 131.478 165.874 123.73 158.126 114.104 158.126 C 104.478 158.126 96.73 165.874 96.73 175.5 C 96.73 185.126 104.478 192.874 114.104 192.874 C 123.73 192.874 131.478 185.126 131.478 175.5 Z "
					fill="rgb(0,0,0)"/>
			</g>
			<g id="Group">
				<path
					d=" M 254.152 175.5 C 254.152 165.874 246.404 158.126 236.778 158.126 C 227.152 158.126 219.404 165.874 219.404 175.5 C 219.404 185.126 227.152 192.874 236.778 192.874 C 246.404 192.874 254.152 185.126 254.152 175.5 Z "
					fill="rgb(0,0,0)"/>
			</g>
			<g id="Group">
				<path
					d=" M 175.5 308.622 C 102.13 308.622 42.378 248.87 42.378 175.5 C 42.378 102.13 102.13 42.378 175.5 42.378 C 248.87 42.378 308.622 102.13 308.622 175.5 C 308.622 248.87 248.87 308.622 175.5 308.622 Z  M 175.5 47.426 C 104.83 47.426 47.426 104.83 47.426 175.5 C 47.426 246.17 104.948 303.574 175.5 303.574 C 246.17 303.574 303.574 246.052 303.574 175.5 C 303.574 104.83 246.17 47.426 175.5 47.426 Z "
					fill="rgb(0,0,0)"/>
			</g>
			<g id="Group">
				<path
					d=" M 175.5 345.483 C 78.77 345.483 0 269.178 0 175.5 C 0 81.822 78.77 5.517 175.5 5.517 C 272.23 5.517 351 81.822 351 175.5 C 351 269.178 272.23 345.483 175.5 345.483 Z  M 175.5 7.983 C 80.061 7.983 2.465 83.113 2.465 175.5 C 2.465 267.887 80.061 343.017 175.5 343.017 C 270.939 343.017 348.535 267.887 348.535 175.5 C 348.535 83.113 270.939 7.983 175.5 7.983 Z "
					fill="rgb(0,0,0)"/>
			</g>
			<g id="Group">
				<path
					d=" M 181.324 75 C 181.324 71.676 178.648 69 175.324 69 C 172 69 169.324 71.676 169.324 75 C 169.324 78.324 172 81 175.324 81 C 178.648 81 181.324 78.324 181.324 75 Z "
					fill="rgb(0,0,0)"/>
			</g>
		</g>
	</g>
</svg>
